<?xml version="1.0" encoding="UTF-8" standalone="no"?>
<svg
   width="900px"
   height="900px"
   viewBox="0 0 900 900"
   version="1.1"
   xml:space="preserve"
   id="SVGRoot"
   inkscape:version="1.4.2 (f4327f4, 2025-05-13)"
   sodipodi:docname="semna11elaine.svg"
   inkscape:export-filename="semna11elaine.png"
   inkscape:export-xdpi="96"
   inkscape:export-ydpi="96"
   xmlns:inkscape="http://www.inkscape.org/namespaces/inkscape"
   xmlns:sodipodi="http://sodipodi.sourceforge.net/DTD/sodipodi-0.dtd"
   xmlns="http://www.w3.org/2000/svg"
   xmlns:svg="http://www.w3.org/2000/svg"><defs
   id="defs5" />
<sodipodi:namedview
   pagecolor="#a9a9a9"
   bordercolor="#292929"
   borderopacity="1"
   inkscape:showpageshadow="2"
   inkscape:pageopacity="0.0"
   inkscape:pagecheckerboard="0"
   inkscape:deskcolor="#232323"
   id="namedview1"
   inkscape:zoom="0.69666667"
   inkscape:cx="448.56459"
   inkscape:cy="450"
   inkscape:window-width="1600"
   inkscape:window-height="829"
   inkscape:window-x="-8"
   inkscape:window-y="-8"
   inkscape:window-maximized="1"
   inkscape:current-layer="SVGRoot" />
<style
   type="text/css"
   id="style1">
g.prefab path {
  vector-effect:non-scaling-stroke;
  -inkscape-stroke:hairline;
  fill: none;
  fill-opacity: 1;
  stroke-opacity: 1;
  stroke: #00349c;
}
</style>
<g
   inkscape:label="Celtic Flower"
   style="fill: white; stroke-width: 2; stroke: black;"
   class="prefab"
   id="g5">
  <path
   d="M 856.63991,48.101367 H 56.639914 L 856.63991,848.10137 Z m -400,0 H 856.63989 V 848.10137 H 456.63991 v -400 z M 56.815546,448.10137 H 856.63988 v 400 H 56.815546 Z m -10e-7,-400.000001 H 856.63989 L 56.815545,848.1014 Z"
   id="path1" />
  <path
   d="M 336.51882,87.866992 A 239.94731,240 0 0 0 96.571555,327.86699 a 239.94731,240 0 0 0 239.947265,240 239.94731,240 0 0 0 239.94921,-240 A 239.94731,240 0 0 0 336.51882,87.866992 Z m 0,79.999998 a 159.96487,160 0 0 1 159.96484,160 159.96487,160 0 0 1 -159.96484,160 159.96487,160 0 0 1 -159.96485,-160 159.96487,160 0 0 1 159.96485,-160 z m 0,80 a 79.982437,80 0 0 0 -79.98243,80 79.982437,80 0 0 0 79.98243,80 79.982437,80 0 0 0 79.98242,-80 79.982437,80 0 0 0 -79.98242,-80 z"
   id="path2" />
  <path
   d="m 576.46803,87.866992 a 239.94731,240 0 0 0 -239.94921,239.999998 239.94731,240 0 0 0 239.94921,240 239.94731,240 0 0 0 239.94727,-240 A 239.94731,240 0 0 0 576.46803,87.866992 Z m 0,79.999998 a 159.96487,160 0 0 1 159.96485,160 159.96487,160 0 0 1 -159.96485,160 159.96487,160 0 0 1 -159.96679,-160 159.96487,160 0 0 1 159.96679,-160 z m 0,80 a 79.982437,80 0 0 0 -79.98437,80 79.982437,80 0 0 0 79.98437,80 79.982437,80 0 0 0 79.98243,-80 79.982437,80 0 0 0 -79.98243,-80 z"
   id="path3" />
  <path
   d="m 336.51882,327.86699 a 239.94731,240 0 0 0 -239.947265,240 239.94731,240 0 0 0 239.947265,240 239.94731,240 0 0 0 239.94921,-240 239.94731,240 0 0 0 -239.94921,-240 z m 0,80 a 159.96487,160 0 0 1 159.96484,160 159.96487,160 0 0 1 -159.96484,160 159.96487,160 0 0 1 -159.96485,-160 159.96487,160 0 0 1 159.96485,-160 z m 0,80 a 79.982437,80 0 0 0 -79.98243,80 79.982437,80 0 0 0 79.98243,80 79.982437,80 0 0 0 79.98242,-80 79.982437,80 0 0 0 -79.98242,-80 z"
   id="path4" />
  <path
   d="m 576.46803,327.86699 a 239.94731,240 0 0 0 -239.94921,240 239.94731,240 0 0 0 239.94921,240 239.94731,240 0 0 0 239.94727,-240 239.94731,240 0 0 0 -239.94727,-240 z m 0,80 a 159.96487,160 0 0 1 159.96485,160 159.96487,160 0 0 1 -159.96485,160 159.96487,160 0 0 1 -159.96679,-160 159.96487,160 0 0 1 159.96679,-160 z m 0,80 a 79.982437,80 0 0 0 -79.98437,80 79.982437,80 0 0 0 79.98437,80 79.982437,80 0 0 0 79.98243,-80 79.982437,80 0 0 0 -79.98243,-80 z"
   id="path5" />
</g>
<path
   style="fill:#800080;stroke-width:1.43541"
   d="m 560.17306,725.53362 c -10.72032,-1.18991 -28.69768,-5.05907 -32.20809,-6.93196 -1.12785,-0.60173 1.40151,-5.4555 7.51444,-14.42003 10.01542,-14.68747 19.86981,-33.08912 25.13529,-46.93655 l 3.33998,-8.78362 8.69251,0.66155 c 16.77168,1.27641 38.39261,-5.52816 53.28024,-16.76844 l 7.35869,-5.55586 27.13685,27.24254 27.13684,27.24255 -5.02392,4.35117 c -34.58426,29.9531 -79.63167,44.64164 -122.36283,39.89865 z"
   id="path6" /><path
   style="fill:#800080;stroke-width:1.43541"
   d="m 662.17978,651.31579 -26.78711,-26.91388 5.10371,-6.45933 c 11.22754,-14.20973 18.52077,-37.07193 17.23062,-54.01309 l -0.67,-8.79778 5.55749,-1.66506 c 12.57551,-3.76771 41.20391,-19.68704 61.0613,-33.95421 3.02371,-2.17247 3.1565,-2.03687 5.28577,5.39749 3.93115,13.7257 5.51015,26.01584 5.51248,42.90654 0.005,32.64992 -8.76861,61.77444 -26.5576,88.16439 -6.47357,9.60353 -16.75147,22.24881 -18.08353,22.24881 -0.47632,0 -12.92023,-12.11125 -27.65313,-26.91388 z"
   id="path7" /><path
   style="fill:#338000;stroke-width:1.43541"
   d="m 510.43376,711.90135 c -14.72922,-6.9093 -32.20277,-18.83524 -42.89451,-29.27611 l -9.01578,-8.80422 6.23309,-8.20238 c 14.23869,-18.73725 23.79675,-39.04202 29.07244,-61.76034 1.15721,-4.9832 2.10401,-10.74277 2.10401,-12.79905 0,-5.05429 1.38522,-3.31636 4.54847,5.70665 7.57115,21.59635 28.42408,41.37191 51.14201,48.49975 7.10712,2.22989 8.14056,3.01008 7.84674,5.92396 -0.91999,9.12402 -33.38733,65.98775 -37.53795,65.74448 -0.48381,-0.0284 -5.65814,-2.29309 -11.49852,-5.03274 z"
   id="path8" /><path
   style="fill:#338000;stroke-width:1.43541"
   d="m 566.85482,645.77608 c -1.05471,-0.43636 -0.4817,-4.39242 1.7545,-12.113 4.06919,-14.04908 7.25986,-32.37542 8.57107,-49.22979 l 0.98768,-12.6959 26.40759,26.33226 26.40758,26.33226 -4.72607,4.06016 c -7.219,6.20183 -23.40992,13.88417 -33.98643,16.12604 -9.12435,1.93406 -22.1419,2.54252 -25.41592,1.18797 z"
   id="path9" /><path
   style="fill:#550000;stroke-width:1.43541"
   d="m 308.61244,805.07866 c -50.72823,-7.63438 -92.74961,-26.50288 -129.05725,-57.94947 l -10.7724,-9.33015 27.10624,-27.16283 27.10624,-27.16283 9.79423,7.96904 c 19.85389,16.15406 38.77818,26.07242 61.06195,32.00303 25.74363,6.85141 56.32428,7.0899 82.60679,0.64421 l 12.59096,-3.08789 13.60938,13.91417 c 14.67554,15.00422 25.21524,23.86615 40.63341,34.16518 9.75839,6.51841 9.78526,6.55462 6.45933,8.70155 -5.70236,3.68093 -28.75978,13.35919 -41.46219,17.40359 -23.42082,7.45709 -37.29413,9.52674 -67.38004,10.05189 -15.39474,0.26872 -29.92823,0.19695 -32.29665,-0.15949 z"
   id="path10" /><path
   style="fill:#bcd35f;stroke-width:1.43541"
   d="m 157.15463,724.52153 c -25.64516,-27.95261 -45.57798,-68.33548 -54.73247,-110.88517 -2.798733,-13.00837 -3.242671,-19.29683 -3.242671,-45.93301 0,-26.63618 0.443938,-32.92465 3.242671,-45.93302 4.38815,-20.39595 11.5833,-41.47913 19.61013,-57.4615 l 6.66329,-13.26742 6.42847,9.78612 c 10.02635,15.26321 19.11556,26.0549 34.5553,41.02783 12.8307,12.44277 14.11733,14.15604 12.93555,17.22488 -6.93997,18.02166 -8.91399,57.62216 -4.03373,80.91976 5.62803,26.86731 16.73194,50.11823 34.03553,71.26837 l 8.20734,10.03182 -26.42618,26.45517 c -14.5344,14.55033 -26.85995,26.45517 -27.39012,26.45517 -0.53016,0 -4.96407,-4.36005 -9.85311,-9.689 z"
   id="path11" /><path
   style="fill:#ff0000;stroke-width:1.43541"
   d="m 213.77541,667.63859 c -26.88319,-34.15181 -38.03445,-70.33838 -34.87849,-113.18299 0.81695,-11.09072 5.50213,-34.54843 7.24928,-36.29558 0.26977,-0.26977 6.61924,3.71688 14.10994,8.85923 13.2145,9.07171 44.08283,25.17111 51.94962,27.09437 3.80851,0.9311 3.86585,1.1123 3.09497,9.78116 -1.48505,16.7001 5.25638,38.32826 16.65092,53.42021 l 5.55586,7.35869 -26.80584,26.77799 c -14.74321,14.7279 -27.20712,26.778 -27.69758,26.778 -0.49045,0 -4.64336,-4.76599 -9.22868,-10.59108 z"
   id="path12" /><path
   style="fill:#ff0000;stroke-width:1.43541"
   d="m 458.61244,726.11906 v -46.95441 l 3.22967,2.86661 c 19.09216,16.94599 33.34022,26.55211 49.82527,33.59246 l 9.27503,3.96114 -12.14585,12.49551 c -13.31459,13.69789 -27.36183,25.60902 -41.21283,34.94572 l -8.97129,6.04739 z"
   id="path13" /><path
   style="fill:#ff0000;stroke-width:1.43541"
   d="m 325.11962,726.08151 c -34.96775,-3.06292 -67.69934,-17.03764 -94.73684,-40.4478 l -5.02393,-4.34991 27.13684,-27.24255 27.13685,-27.24254 7.35869,5.55586 c 14.88763,11.24028 36.50856,18.04485 53.28024,16.76844 l 8.69251,-0.66155 3.33998,8.78362 c 5.2906,13.91349 15.14411,32.28872 25.17151,46.94091 l 9.25078,13.51736 -4.0199,1.70518 c -9.80601,4.15956 -42.72813,7.97448 -57.58673,6.67298 z"
   id="path14" /><path
   style="fill:#00ff00;stroke-width:1.43541"
   d="m 656.08282,550.21859 c -0.33088,-1.04128 -1.36622,-4.47696 -2.30076,-7.63486 -2.34331,-7.91833 -9.30625,-20.2306 -15.95122,-28.20588 -6.839,-8.20817 -22.35188,-18.96778 -32.4525,-22.50881 -9.1253,-3.19911 -10.75631,-4.54847 -5.49788,-4.54847 5.76632,0 25.32343,-5.23458 37.23358,-9.9658 12.40312,-4.92704 25.97381,-12.66878 37.09223,-21.16017 l 8.17756,-6.24539 8.79902,8.99669 c 10.62828,10.86705 22.59013,28.42996 29.39619,43.16078 2.76048,5.97469 5.01905,11.12454 5.01905,11.44412 0,0.31958 -5.00598,4.16802 -11.12441,8.55209 -12.11973,8.68424 -29.17081,18.39151 -42.70335,24.31125 -12.29724,5.37937 -14.98029,6.03005 -15.68751,3.80445 z"
   id="path15" /><path
   style="fill:#ffdd55;stroke-width:1.43541"
   d="m 606.68932,595.96501 -26.32503,-26.3949 13.23748,-0.99929 c 16.97313,-1.2813 33.50303,-4.17988 48.33396,-8.47552 13.3432,-3.86474 13.34428,-3.86415 13.3025,7.3666 -0.0601,16.15283 -7.79737,37.87899 -17.61397,49.45968 l -4.60991,5.43832 z"
   id="path16" /><path
   style="fill:#ffdd55;stroke-width:1.43541"
   d=""
   id="path17" /><path
   style="fill:#ffdd55;stroke-width:1.43541"
   d="m 312.20096,565.27048 c -13.79974,-1.47785 -47.83629,-8.94304 -51.94687,-11.39343 -0.54446,-0.32457 0.002,-3.96724 1.21346,-8.09483 6.87421,-23.41342 24.79597,-42.65204 47.91625,-51.43705 9.15924,-3.48024 25.7285,-5.86147 32.8556,-4.7218 l 5.48974,0.87785 -2.6901,8.81637 c -4.19692,13.7548 -8.16538,36.1123 -9.27214,52.23743 l -1.00983,14.71292 -8.76609,-0.22972 c -4.82136,-0.12634 -11.02687,-0.47183 -13.79002,-0.76774 z"
   id="path18" /><path
   style="fill:#d35f5f;stroke-width:1.43541"
   d="m 320.09569,644.54132 c -10.36479,-2.26393 -21.91368,-7.62802 -31.41162,-14.5897 l -7.00971,-5.13788 26.3877,-26.42361 26.3877,-26.4236 1.66222,16.54762 c 1.71787,17.10157 6.32786,41.05881 9.78778,50.86529 1.72872,4.89971 1.70497,5.71345 -0.18795,6.43983 -3.56991,1.36991 -16.43112,0.72828 -25.61612,-1.27795 z"
   id="path19" /><path
   style="fill:#d35f5f;stroke-width:1.43541"
   d="m 448.09915,660.64593 c -18.49742,-24.8257 -29.6781,-59.31268 -29.6781,-91.54256 v -14.0134 l 9.689,-3.8583 c 5.32895,-2.12207 13.72607,-5.99184 18.66028,-8.59948 l 8.9713,-4.74116 v 65.8631 c 0,36.2247 -0.21556,65.86309 -0.47902,65.86309 -0.26347,0 -3.48702,-4.03708 -7.16346,-8.97129 z"
   id="path20" /><path
   style="fill:#0000ff;stroke-width:1.43541"
   d="m 383.79987,708.01435 c -10.07708,-13.9799 -14.87841,-22.12034 -22.67464,-38.44384 -10.03976,-21.0209 -10.04721,-20.88058 1.31496,-24.75895 5.13158,-1.75162 12.55981,-5.0781 16.50718,-7.39218 15.21274,-8.91821 30.79204,-28.94158 35.25691,-45.31412 l 1.7615,-6.45933 1.95548,11.26038 c 3.97386,22.88293 15.39211,49.15908 29.40669,67.67192 l 7.15701,9.4542 -8.97816,8.56971 c -11.80505,11.26799 -27.19587,21.79277 -42.04254,28.75015 -6.61169,3.09835 -12.28594,5.63336 -12.60945,5.63336 -0.32351,0 -3.49824,-4.03709 -7.05494,-8.9713 z"
   id="path21" /><path
   style="fill:#00aa88;stroke-width:1.43541"
   d="m 412.8234,540.31464 c -3.57235,-10.00918 -8.43949,-18.43148 -14.26235,-24.68012 l -3.71132,-3.9827 5.90942,-5.90942 5.90942,-5.90942 8.56002,7.53485 8.56002,7.53484 -2.02296,6.6635 c -1.11263,3.66492 -2.83987,11.4558 -3.83831,17.31306 l -1.81533,10.64956 z"
   id="path22" /><path
   style="fill:#00aa88;stroke-width:1.43541"
   d=""
   id="path23" /><path
   style="fill:#00aa88;stroke-width:1.43541"
   d="m 458.64436,603.92671 -0.0319,-64.97282 8.25359,4.08729 c 4.53947,2.24801 12.61364,5.90684 17.94258,8.13074 l 9.689,4.04344 v 14.98981 c 0,32.84798 -12.84442,69.91453 -32.95637,95.10583 l -2.86496,3.58852 z"
   id="path24" /></svg>
